<?xml version="1.0" standalone="no"?>
<!DOCTYPE svg PUBLIC "-//W3C//DTD SVG 20010904//EN"
 "http://www.w3.org/TR/2001/REC-SVG-20010904/DTD/svg10.dtd">
<svg version="1.0" xmlns="http://www.w3.org/2000/svg"
 width="700.000000pt" height="700.000000pt" viewBox="0 0 700.000000 700.000000"
 preserveAspectRatio="xMidYMid meet">
<metadata>
Created by potrace 1.14, written by Peter Selinger 2001-2017
</metadata>
<g transform="translate(0.000000,700.000000) scale(0.100000,-0.100000)"
fill="#000000" stroke="none">
<path d="M5548 6655 c-2 -1 -50 -5 -108 -9 -58 -3 -116 -8 -130 -10 -14 -2
-50 -7 -80 -11 -72 -8 -303 -44 -355 -55 -22 -5 -56 -11 -75 -14 -157 -24
-761 -187 -928 -251 -20 -7 -95 -35 -167 -61 -915 -332 -1683 -835 -2153
-1409 -31 -38 -65 -79 -75 -90 -40 -44 -248 -327 -324 -440 -71 -107 -161
-254 -237 -387 -33 -60 -157 -307 -185 -373 -12 -27 -26 -59 -31 -70 -116
-255 -269 -763 -305 -1015 -4 -24 -8 -47 -10 -50 -2 -3 -6 -30 -10 -60 -4 -30
-8 -57 -10 -60 -2 -3 -6 -39 -10 -80 -4 -41 -8 -77 -10 -80 -2 -3 -6 -48 -10
-100 -4 -52 -9 -102 -10 -110 -2 -9 -6 -72 -10 -140 -3 -69 -8 -156 -10 -195
-3 -38 -7 -180 -10 -315 -6 -303 8 -414 70 -547 20 -41 84 -106 122 -122 16
-6 37 -25 46 -41 31 -52 151 -129 247 -158 60 -18 222 -38 415 -51 116 -8 633
-6 705 3 19 2 71 7 115 11 44 3 91 8 105 10 14 2 48 6 75 10 727 90 1439 335
2055 704 451 271 880 626 1210 1001 45 52 96 110 112 127 63 72 228 297 324
443 275 418 479 868 618 1362 35 123 45 163 86 358 30 137 63 349 75 475 4 39
9 72 10 75 9 15 20 307 20 520 0 296 -14 537 -37 625 -25 97 -102 215 -201
308 -61 57 -181 127 -218 127 -10 0 -42 18 -71 40 -96 73 -222 101 -465 105
-90 1 -164 1 -165 0z"/>
</g>
</svg>
